<?xml version="1.0" encoding="UTF-8"?>
<svg id="Layer_1" data-name="Layer 1" xmlns="http://www.w3.org/2000/svg" viewBox="0 0 512 408">
  <path d="m56.48,53.32C55.51,25.58,77.13,0,106.34,0h299.35c29.21,0,50.83,25.58,49.86,53.32-.93,26.65.28,61.17,8.96,89.31,8.71,28.23,23.41,46.08,47.48,48.37v26c-24.07,2.29-38.77,20.14-47.48,48.37-8.69,28.14-9.89,62.66-8.96,89.31.97,27.74-20.65,53.32-49.86,53.32H106.34c-29.21,0-50.83-25.58-49.86-53.32.93-26.65-.28-61.17-8.97-89.31-8.71-28.23-23.45-46.08-47.52-48.37v-26c24.07-2.29,38.8-20.14,47.52-48.37,8.69-28.15,9.89-62.66,8.97-89.31Z" fill="#fff"/>
  <path d="m177.9,312.46h89.2c47.3,0,75.8-23.16,75.8-61.35,0-28.87-20.34-49.78-50.53-53.09v-1.2c22.18-3.61,39.59-24.21,39.59-47.22,0-32.78-25.88-54.14-65.32-54.14h-88.74m34.51,27.52h45.91c24.96,0,39.13,11.13,39.13,31.28,0,21.51-16.48,33.54-46.37,33.54h-38.67v-64.81Zm0,161.96v-71.43h45.6c32.66,0,49.61,12.03,49.61,35.49s-16.48,35.94-47.61,35.94h-47.6Z" fill="#2b2b2b" stroke="#fff"/>
</svg>