<?xml version="1.0" encoding="utf-8"?>
<!-- Generator: Adobe Illustrator 28.1.0, SVG Export Plug-In . SVG Version: 6.00 Build 0)  -->
<svg version="1.1" id="Layer_1" xmlns="http://www.w3.org/2000/svg" xmlns:xlink="http://www.w3.org/1999/xlink" x="0px" y="0px"
	 viewBox="0 0 2500 2373" style="enable-background:new 0 0 2500 2373;" xml:space="preserve">
<style type="text/css">
	.st0{fill:#FFFFFF;stroke:#000000;stroke-miterlimit:10;}
</style>
<path class="st0" d="M2495.3,1715c1.1-10.9,1.9-21.9,2.5-32.9c0.8-13.1-786.7-760.2-786.7-760.2h-18.8
	C1692.3,921.8,2490.4,1763.8,2495.3,1715L2495.3,1715z"/>
<path class="st0" d="M815.1,1455.8c-1,2.3-2.1,4.6-3.2,6.9c-1.1,2.4-2.3,4.8-3.4,7.2c-25.1,52.3,351.4,420.4,381.7,375.7
	c1.4-2,2.8-4.1,4.1-6c1.5-2.3,3-4.6,4.6-6.9C1223.2,1795.8,825.9,1431.9,815.1,1455.8L815.1,1455.8z"/>
<path class="st0" d="M1347.2,1973.4c-1.1,2.3-8.6,15.2-15.6,21.9c-1.2,2.3,367.6,368,367.6,368h33.2
	C1732.4,2363.4,1386.3,1988.9,1347.2,1973.4z"/>
<path class="st0" d="M2498.3,1675.4c-17.2,382.3-333.5,688-719.9,688h-52.2l-385.9-380.1c31.7-44.8,61.2-91.1,87.5-139.5h350.6
	c110.9,0,201.1-90.2,201.1-201.1c0-110.9-90.2-201.1-201.1-201.1H1571c15.8-83.6,24.5-169.7,24.5-257.9c0-89.5-8.8-176.9-25.2-261.8
	h128.9l797,785.3C2497,1696.6,2497.8,1686.1,2498.3,1675.4L2498.3,1675.4z M209.6,0H0v519.6h209.6c366.1,0,664,297.8,664,664
	c0,99.6-22.2,194.2-61.7,279.1l382.4,376.8c125.6-187.9,199-413.5,199-655.9C1393.4,531,862.4,0,209.6,0z"/>
<path class="st0" d="M1778.4,0H929.5c207.3,126.6,379,306.1,496,519.6h352.9c110.9,0,201.1,90.2,201.1,201.1
	c0,110.9-90.2,201.1-201.1,201.1h-79.3l797,785.3c1.9-21.3,3-42.7,3-64.5c0-175.2-62.9-335.9-167.2-461
	c104.4-125,167.2-285.7,167.2-460.9C2499.1,323.4,2175.9,0,1778.4,0z"/>
<path class="st0" d="M1726.2,2363.4H935.6c159.1-98.3,296.7-228,404.7-380.1L1726.2,2363.4L1726.2,2363.4z M1194.4,1839.5
	L812,1462.7c-105.7,227.1-335.9,385-602.4,385H0v519.6h209.6C619.9,2367.2,982,2157.4,1194.4,1839.5z"/>
</svg>
