<?xml version="1.0" encoding="UTF-8"?>
<svg id="Layer_1" data-name="Layer 1" xmlns="http://www.w3.org/2000/svg" viewBox="0 0 100 100">
  <path d="m20.83,22.92c0-8.05,6.53-14.58,14.58-14.58h14.58v29.17h-14.58c-8.05,0-14.58-6.53-14.58-14.58Z" fill="none" stroke="#fffefd" stroke-linecap="round" stroke-linejoin="round" stroke-width="8.33"/>
  <path d="m50,8.33h14.58c8.05,0,14.58,6.53,14.58,14.58s-6.53,14.58-14.58,14.58h-14.58V8.33Z" fill="none" stroke="#fffefd" stroke-linecap="round" stroke-linejoin="round" stroke-width="8.33"/>
  <path d="m50,52.08c0-8.05,6.53-14.58,14.58-14.58s14.58,6.53,14.58,14.58-6.53,14.58-14.58,14.58-14.58-6.53-14.58-14.58Z" fill="none" stroke="#fffefd" stroke-linecap="round" stroke-linejoin="round" stroke-width="8.33"/>
  <path d="m20.83,81.25c0-8.05,6.53-14.58,14.58-14.58h14.58v14.58c0,8.05-6.53,14.58-14.58,14.58s-14.58-6.53-14.58-14.58Z" fill="none" stroke="#fffefd" stroke-linecap="round" stroke-linejoin="round" stroke-width="8.33"/>
  <path d="m20.83,52.08c0-8.05,6.53-14.58,14.58-14.58h14.58v29.17h-14.58c-8.05,0-14.58-6.53-14.58-14.58Z" fill="none" stroke="#fffefd" stroke-linecap="round" stroke-linejoin="round" stroke-width="8.33"/>
</svg>