<?xml version="1.0" encoding="UTF-8"?>
<svg id="Layer_1" data-name="Layer 1" xmlns="http://www.w3.org/2000/svg" viewBox="0 0 2499.78 1873.77">
  <path d="M2151.93,1075.97c-87.4.49-163.09,21.48-226.56,52.74-23.44-46.39-46.88-86.92-50.78-117.19-4.39-35.16-9.77-56.65-4.39-98.63,5.37-42,29.78-101.57,29.78-106.45-.49-4.39-5.38-25.88-55.66-26.37s-93.75,9.77-98.63,22.95-14.65,43.46-21,74.71c-8.79,45.9-100.59,208.5-152.83,293.95-17.09-33.2-31.74-62.5-34.67-85.94-4.39-35.15-9.77-56.64-4.39-98.63,5.37-42,29.79-101.56,29.79-106.45-.49-4.39-5.37-25.88-55.66-26.37-50.3-.49-93.75,9.77-98.63,22.95s-10.25,44.43-21,74.71c-10.26,30.27-132.33,301.76-164.07,372.56-16.11,36.13-30.27,64.94-40.53,84.47-10.25,19.53-.49,1.46-1.46,3.42-8.79,16.6-13.67,25.88-13.67,25.88v.49c-6.84,12.21-14.16,23.92-17.58,23.92-2.44,0-7.32-32.71.98-77.63,18.07-94.24,62.01-241.21,61.53-246.58,0-2.44,8.3-28.33-28.33-41.5-35.64-13.18-48.33,8.79-51.27,8.79s-5.37,7.81-5.37,7.81c0,0,39.55-165.52-75.68-165.52-72.27,0-171.87,78.61-221.19,150.39-31.25,17.09-97.66,53.22-167.97,91.8-26.86,14.65-54.69,30.27-81.05,44.43l-5.37-5.87c-139.65-148.93-397.95-254.39-387.21-454.59,3.91-72.75,29.3-264.65,496.1-497.07,382.32-190.43,688.48-138.18,741.69-21.97,75.68,166.02-163.57,474.61-561.03,519.04-151.37,17.09-230.96-41.5-250.98-63.48-21-22.95-23.93-23.93-31.74-19.53-12.7,6.84-4.88,27.34,0,39.55,11.72,30.76,60.55,85.45,143.55,112.79,72.75,23.93,250.49,37.11,465.33-45.9,240.72-93.26,428.71-352.05,373.54-568.36C1509.36,9.08,1144.12-63.19,798.91,59.37c-205.57,73.24-428.23,187.5-588.38,337.4C20.1,574.51-10.18,729.78,2.52,794.24c44.44,229.98,361.33,379.88,488.28,490.72-6.35,3.41-12.21,6.83-17.58,9.77-63.48,31.25-305.18,157.71-365.72,291.5-68.36,151.37,10.74,260.26,63.48,274.91,163.09,45.41,330.08-36.13,420.41-170.41,89.84-134.28,79.1-308.59,37.6-388.18l-1.47-2.93,49.8-29.3c32.23-19.04,63.97-36.62,91.8-51.76-15.62,42.48-26.86,92.77-32.71,166.02-6.84,85.94,28.32,197.27,74.71,241.21,20.51,19.04,44.92,19.53,60.06,19.53,53.71,0,78.12-44.44,104.98-97.66,33.2-64.94,62.5-140.14,62.5-140.14,0,0-36.62,203.61,63.48,203.61,36.62,0,73.24-47.36,89.84-71.78v.49s.98-1.46,2.93-4.88c2.05-3.03,4-6.12,5.86-9.27v-.98c14.65-25.39,47.36-83.5,96.19-179.69,62.98-124.02,123.54-279.3,123.54-279.3,0,0,5.86,38.09,23.93,100.59,10.74,37.11,34.17,77.64,52.24,117.19-14.65,20.51-23.44,32.23-23.44,32.23l.49.49c-11.71,15.63-24.9,32.23-38.57,48.83-49.8,59.57-109.37,127.45-117.19,146.98-9.28,22.94-7.32,40.03,10.74,53.71,13.18,9.77,36.62,11.71,61.52,9.77,44.92-2.93,76.17-14.16,91.8-21,24.41-8.79,52.25-21.97,79.1-41.5,48.83-36.13,78.61-87.4,75.68-155.76-1.46-37.6-13.67-74.71-28.81-109.86,4.39-6.35,8.79-12.7,13.18-19.53,77.15-112.8,136.72-236.82,136.72-236.82,0,0,5.86,38.09,23.93,100.59,9.27,31.74,27.83,66.41,44.43,100.59-72.27,59.08-117.68,127.44-133.3,172.36-28.81,83.01-6.35,120.61,36.13,129.39,19.04,3.91,46.39-4.88,66.89-13.67,25.39-8.3,56.15-22.47,84.48-43.46,48.83-36.13,95.7-86.43,93.26-154.3-1.46-31.25-9.77-62.01-21-91.31,61.52-25.39,141.11-40.04,242.19-27.83,217.29,25.39,260.25,161.13,251.96,217.77-8.3,56.65-53.71,87.89-68.85,97.66-15.14,9.28-20.02,12.7-18.55,19.53,1.95,10.26,8.79,9.77,21.97,7.82,18.07-2.93,114.26-46.39,118.16-150.87,5.86-134.3-121.58-280.78-347.66-279.32h0ZM476.15,1640.91c-71.78,78.61-172.85,108.4-215.82,83.01-46.39-26.86-28.33-142.58,60.06-226.07,53.71-50.78,123.54-97.66,169.43-126.46,10.25-6.35,25.88-15.62,44.43-26.86,2.93-1.95,4.88-2.93,4.88-2.93,3.42-1.95,7.32-4.39,11.23-6.84,32.71,119.14,1.46,223.63-74.22,306.15h0ZM1001.05,1283.98c-24.9,61.04-77.64,217.77-109.37,208.98-27.35-7.32-43.95-125.98-5.38-243.16,19.53-59.09,61.04-129.39,85.45-156.74,39.56-43.95,82.52-58.59,93.27-40.53,12.7,23.44-48.34,193.36-63.96,231.45ZM1434.16,1491.01c-10.74,5.38-20.51,9.28-24.9,6.35-3.42-1.95,4.39-9.28,4.39-9.28,0,0,54.2-58.11,75.68-84.96,12.21-15.62,26.86-33.69,42.48-54.2v5.86c0,70.31-67.38,117.18-97.65,136.23h0ZM1768.14,1414.84c-7.81-5.86-6.83-23.93,19.53-80.57,10.26-22.46,33.69-60.06,74.22-95.7,4.88,14.65,7.82,28.8,7.32,41.99-.48,87.89-62.98,120.61-101.07,134.28Z" fill="#fff" stroke-width="0"/>
</svg>